<svg width="32" height="30" viewBox="0 0 32 30" fill="none" xmlns="http://www.w3.org/2000/svg">
<g filter="url(#filter0_d_25_11)">
<path fill-rule="evenodd" clip-rule="evenodd" d="M20.0237 8.71122C20.1108 8.62391 20.2143 8.55464 20.3282 8.50738C20.4421 8.46012 20.5642 8.43579 20.6875 8.43579C20.8108 8.43579 20.9329 8.46012 21.0468 8.50738C21.1607 8.55464 21.2641 8.62391 21.3512 8.71122L26.9762 14.3362C27.0635 14.4233 27.1328 14.5268 27.1801 14.6407C27.2273 14.7545 27.2516 14.8767 27.2516 15C27.2516 15.1233 27.2273 15.2454 27.1801 15.3593C27.1328 15.4732 27.0635 15.5766 26.9762 15.6637L21.3512 21.2887C21.1752 21.4648 20.9364 21.5636 20.6875 21.5636C20.4385 21.5636 20.1998 21.4648 20.0237 21.2887C19.8477 21.1127 19.7488 20.8739 19.7488 20.625C19.7488 20.376 19.8477 20.1373 20.0237 19.9612L24.9868 15L20.0237 10.0387C19.9364 9.95163 19.8671 9.84818 19.8199 9.73428C19.7726 9.62038 19.7483 9.49828 19.7483 9.37497C19.7483 9.25165 19.7726 9.12955 19.8199 9.01565C19.8671 8.90176 19.9364 8.7983 20.0237 8.71122Z" fill="white"/>
<path fill-rule="evenodd" clip-rule="evenodd" d="M4.75 15C4.75 14.7514 4.84877 14.5129 5.02459 14.3371C5.2004 14.1613 5.43886 14.0625 5.6875 14.0625H25.375C25.6236 14.0625 25.8621 14.1613 26.0379 14.3371C26.2137 14.5129 26.3125 14.7514 26.3125 15C26.3125 15.2486 26.2137 15.4871 26.0379 15.6629C25.8621 15.8387 25.6236 15.9375 25.375 15.9375H5.6875C5.43886 15.9375 5.2004 15.8387 5.02459 15.6629C4.84877 15.4871 4.75 15.2486 4.75 15Z" fill="white"/>
</g>
<defs>
<filter id="filter0_d_25_11" x="-3" y="0" width="38" height="38" filterUnits="userSpaceOnUse" color-interpolation-filters="sRGB">
<feFlood flood-opacity="0" result="BackgroundImageFix"/>
<feColorMatrix in="SourceAlpha" type="matrix" values="0 0 0 0 0 0 0 0 0 0 0 0 0 0 0 0 0 0 127 0" result="hardAlpha"/>
<feOffset dy="4"/>
<feGaussianBlur stdDeviation="2"/>
<feComposite in2="hardAlpha" operator="out"/>
<feColorMatrix type="matrix" values="0 0 0 0 0 0 0 0 0 0 0 0 0 0 0 0 0 0 0.25 0"/>
<feBlend mode="normal" in2="BackgroundImageFix" result="effect1_dropShadow_25_11"/>
<feBlend mode="normal" in="SourceGraphic" in2="effect1_dropShadow_25_11" result="shape"/>
</filter>
</defs>
</svg>
